# xmcd
# 
# Track frame offsets:
#     150
#     17187
#     33249
#     58731
# 
# Disc length: 1776
# 
# Revision: 0
# Processed by: cddbd v1.5.2PL0 Copyright (c) Steve Scherf et al.
# Submitted via: fre:ac v1.0.17
# 
DISCID=2c06ee04
DTITLE=Various Artist - Kanackis (Bonus CD) CD2
DYEAR=2012
DGENRE=Hip-Hop
TTITLE0=Celo and Abdi - Azzlack Syndicat Feat. Psyko Veysel
TTITLE1=Haftbefehl - IHNAMG (Ihr Habt Nicht An Mich Geglaubt) (Abaz and Xplosiv Remix)
TTITLE2=Haftbefehl - Narcotic Traffic (Abaz and KD Beatz Remix)
TTITLE3=Data track
EXTD=
EXTT0=
EXTT1=
EXTT2=
EXTT3=
PLAYORDER=
